<?xml version="1.0" encoding="UTF-8" standalone="no"?>
<svg
   xmlns:dc="http://purl.org/dc/elements/1.1/"
   xmlns:cc="http://creativecommons.org/ns#"
   xmlns:rdf="http://www.w3.org/1999/02/22-rdf-syntax-ns#"
   xmlns:svg="http://www.w3.org/2000/svg"
   xmlns="http://www.w3.org/2000/svg"
   xmlns:sodipodi="http://sodipodi.sourceforge.net/DTD/sodipodi-0.dtd"
   xmlns:inkscape="http://www.inkscape.org/namespaces/inkscape"
   width="50"
   height="50"
   viewBox="0 0 50 50"
   version="1.1"
   id="svg8"
   sodipodi:docname="work-in-progress-ink.svg"
   inkscape:version="1.0.2 (e86c870879, 2021-01-15)">
  <sodipodi:namedview
     pagecolor="#ffffff"
     bordercolor="#666666"
     borderopacity="1"
     objecttolerance="10"
     gridtolerance="10"
     guidetolerance="10"
     inkscape:pageopacity="0"
     inkscape:pageshadow="2"
     inkscape:window-width="1920"
     inkscape:window-height="1005"
     id="namedview10"
     showgrid="false"
     units="px"
     inkscape:showpageshadow="false"
     inkscape:zoom="14.412757"
     inkscape:cx="15.94123"
     inkscape:cy="25.930104"
     inkscape:window-x="0"
     inkscape:window-y="0"
     inkscape:window-maximized="1"
     inkscape:current-layer="svg8" />
  <defs
     id="defs2" />
  <metadata
     id="metadata5">
    <rdf:RDF>
      <cc:Work
         rdf:about="">
        <dc:format>image/svg+xml</dc:format>
        <dc:type
           rdf:resource="http://purl.org/dc/dcmitype/StillImage" />
        <dc:title></dc:title>
        <cc:license
           rdf:resource="http://artlibre.org/licence/lal" />
      </cc:Work>
      <cc:License
         rdf:about="http://artlibre.org/licence/lal">
        <cc:permits
           rdf:resource="http://creativecommons.org/ns#Reproduction" />
        <cc:permits
           rdf:resource="http://creativecommons.org/ns#Distribution" />
        <cc:permits
           rdf:resource="http://creativecommons.org/ns#DerivativeWorks" />
        <cc:requires
           rdf:resource="http://creativecommons.org/ns#ShareAlike" />
        <cc:requires
           rdf:resource="http://creativecommons.org/ns#Notice" />
        <cc:requires
           rdf:resource="http://creativecommons.org/ns#Attribution" />
      </cc:License>
    </rdf:RDF>
  </metadata>
  <g
     id="layer1" />
  <g
     id="layer3"
     style="display:inline"
     transform="matrix(0.35554471,0,0,0.35554471,-16.600073,-19.848449)">
    <path
       id="path981"
       style="display:inline;fill:#333333;fill-opacity:1;stroke:none;stroke-width:0.264583"
       d="m 53.258708,167.92618 -1.147217,0.80564 c -0.631,0.44303 -1.444874,1.33599 -1.808676,1.98437 -0.607899,1.08343 -0.669026,1.4982 -0.752925,5.12424 -0.05023,2.17002 -0.01336,4.56817 0.08165,5.32887 0.290801,2.32745 2.046036,4.38177 4.175456,4.88704 0.473731,0.11241 25.044873,0.21661 54.602364,0.23151 l 53.7409,0.0269 0.69712,-0.54828 c 0.96411,-0.75837 0.96411,-2.11381 0,-2.87218 -0.68492,-0.53837 -0.93758,-0.54829 -14.41979,-0.54829 h -13.72268 v -5.42395 -5.42396 h 22.45393 c 22.31537,0 22.4582,0.003 23.15104,0.54828 l 0.69711,0.54881 v 4.39146 c 0,3.71526 -0.0673,4.46634 -0.43769,4.87567 -0.39369,0.43505 -0.92433,0.48369 -5.25602,0.48369 -4.4737,0 -4.86811,0.0391 -5.51542,0.54829 -1.25879,0.99017 -0.81456,2.91736 0.76378,3.31349 0.34654,0.087 2.80866,0.11448 5.4715,0.061 5.23499,-0.10513 5.69062,-0.21395 7.18664,-1.70997 1.55058,-1.55058 1.62367,-1.88791 1.62367,-7.50445 0,-5.01258 -0.0188,-5.19278 -0.66146,-6.33812 -0.3638,-0.64838 -1.17767,-1.54134 -1.80867,-1.98437 l -1.14722,-0.80564 h -63.98369 z m 73.049302,3.55276 2.27996,0.0754 2.28048,0.076 0.0718,5.35781 0.0713,5.35781 h -5.18677 c -2.8528,0 -5.14741,-0.0937 -5.09891,-0.20825 0.0485,-0.11454 1.32423,-2.55976 2.83497,-5.43378 z m -67.615525,0.0191 c 3.017769,0 3.801737,0.0728 3.734139,0.34675 -0.04705,0.19076 -1.27589,2.62947 -2.731101,5.4193 l -2.645833,5.07205 -1.348237,0.005 c -2.153219,0.008 -2.223638,-0.16243 -2.223638,-5.35471 v -4.39146 l 0.697116,-0.5488 c 0.632169,-0.49727 1.053412,-0.54829 4.517554,-0.54829 z m 8.31732,0 h 5.159375 c 4.12251,0 5.14241,0.0696 5.07411,0.34675 -0.04705,0.19076 -1.275889,2.62947 -2.7311,5.4193 l -2.645834,5.07205 -5.24774,0.005 c -2.88616,0.003 -5.207876,-0.0946 -5.159375,-0.216 0.0485,-0.12142 1.317366,-2.5622 2.819466,-5.42396 z m 14.824419,0 h 5.155758 c 4.119327,0 5.138324,0.0697 5.069975,0.34675 -0.04705,0.19076 -1.275893,2.62947 -2.731101,5.4193 l -2.645833,5.07205 -5.247741,0.005 c -2.886167,0.003 -5.207875,-0.093 -5.159375,-0.21238 0.04851,-0.11937 1.318853,-2.56014 2.823083,-5.42396 z m 14.805302,0 h 5.161454 c 4.27828,0 5.14657,0.0632 5.07566,0.36897 -0.047,0.20287 -1.2759,2.64151 -2.7311,5.4193 l -2.64584,5.05034 -5.247754,0.005 c -2.886162,0.003 -5.207884,-0.0856 -5.159372,-0.19585 0.04851,-0.1103 1.316339,-2.55108 2.8174,-5.42396 z m 14.816674,0 h 5.16145 c 4.27827,0 5.14655,0.0632 5.07565,0.36897 -0.047,0.20287 -1.27589,2.64151 -2.7311,5.4193 l -2.64583,5.05034 -5.24774,0.005 c -2.88617,0.003 -5.20789,-0.0856 -5.15938,-0.19585 0.0485,-0.1103 1.31634,-2.55108 2.8174,-5.42396 z M 77.290315,110.5116 c -4.36425,0 -4.686292,0.0346 -5.603791,0.60513 -1.303181,0.81035 -1.978313,2.33234 -2.197282,4.95112 -0.260811,3.1191 -0.244772,3.08807 -2.133719,4.06745 l -1.706875,0.88522 -2.478918,-1.08727 c -3.357899,-1.47264 -4.796803,-1.45711 -6.472473,0.0703 -0.886629,0.80817 -4.536811,7.33439 -4.714441,8.42894 -0.278509,1.7163 0.611111,3.10101 3.232361,5.02967 l 2.321822,1.70842 0.03514,1.97249 0.03566,1.973 -2.33216,1.70481 c -1.722469,1.25959 -2.47692,2.00201 -2.887159,2.84014 -0.844111,1.72455 -0.552818,2.77365 1.962152,7.06727 1.93997,3.31195 2.29597,3.76897 3.360518,4.31601 1.533581,0.78806 2.438572,0.67432 5.551083,-0.69918 l 2.426726,-1.07125 1.681552,0.92449 c 1.848868,1.01626 1.830321,0.97984 2.134753,4.20284 0.27254,2.8854 1.026319,4.33834 2.625678,5.06171 0.591812,0.26768 1.98375,0.34255 5.471501,0.29455 4.254915,-0.0586 4.744199,-0.11359 5.407938,-0.60978 1.429691,-1.06877 1.722696,-1.74844 2.108917,-4.88652 0.202078,-1.64186 0.398764,-3.00606 0.436665,-3.03186 0.03793,-0.0258 0.798089,-0.48311 1.68982,-1.01647 l 1.621605,-0.96997 2.385385,1.05885 c 3.102666,1.37719 3.762363,1.495 5.229133,0.93483 1.40277,-0.53572 1.84609,-1.08636 4.217844,-5.24258 2.86054,-5.01276 2.70173,-6.13996 -1.289334,-9.13949 l -2.40864,-1.81023 0.0403,-1.92443 0.0403,-1.92494 2.34095,-1.75804 c 4.425814,-3.32412 4.365114,-4.33707 -0.7488,-12.51551 -1.4863,-2.37698 -3.46324,-2.65801 -7.16028,-1.01699 -1.311373,0.58208 -2.480022,1.05833 -2.59674,1.05833 -0.116711,0 -0.925812,-0.4254 -1.798342,-0.94516 -1.73147,-1.03143 -1.662157,-0.87838 -2.044837,-4.4788 -0.240199,-2.25995 -0.903375,-3.62811 -2.128033,-4.38939 -0.982041,-0.61047 -1.223312,-0.63769 -5.655987,-0.63769 z m -2.377631,3.84059 c 0.571556,-0.0123 1.357403,0.0335 2.449462,0.0548 l 3.762044,0.0734 0.327629,3.04271 c 0.46818,4.345 0.351298,4.10109 2.480468,5.17333 1.02842,0.51789 2.353541,1.29234 2.94504,1.72082 0.5915,0.42848 1.302835,0.77876 1.580264,0.77876 0.277432,0 1.871776,-0.59531 3.542938,-1.32291 1.671163,-0.72761 3.083867,-1.32292 3.139337,-1.32292 0.21304,0 3.58109,6.01408 3.56775,6.37067 -0.008,0.20687 -1.22814,1.26918 -2.71198,2.36058 l -2.69803,1.98438 -0.07648,3.43958 c -0.04199,1.89177 -0.01664,3.68104 0.05633,3.97598 0.07298,0.29494 1.397381,1.46135 2.94297,2.59209 2.69933,1.97481 2.79579,2.07874 2.43861,2.6386 -0.20452,0.32057 -1.01035,1.69633 -1.79059,3.05718 -0.78023,1.36085 -1.55382,2.52621 -1.71876,2.58951 -0.16493,0.0633 -1.564433,-0.42506 -3.10988,-1.08521 -1.545449,-0.66016 -3.151245,-1.20044 -3.568774,-1.20044 -0.417541,0 -1.16949,0.30758 -1.670701,0.68316 -0.501218,0.37558 -1.710057,1.08892 -2.686655,1.58543 -0.976591,0.49652 -1.886927,1.1122 -2.022618,1.36788 -0.135689,0.25569 -0.393637,1.83379 -0.573606,3.50728 -0.179957,1.67349 -0.445231,3.19153 -0.58963,3.37343 -0.1857,0.23394 -1.261864,0.33073 -3.675745,0.33073 -4.04405,0 -3.739919,0.29681 -4.195609,-4.09639 -0.165769,-1.59819 -0.434363,-3.06602 -0.596863,-3.26181 -0.162488,-0.19579 -0.898292,-0.65972 -1.635043,-1.03095 -0.73674,-0.37123 -1.947087,-1.07629 -2.689756,-1.56683 -0.742662,-0.49054 -1.672217,-0.89193 -2.065507,-0.89193 -0.393282,0 -1.967103,0.54544 -3.497461,1.21181 -1.53035,0.66636 -2.922519,1.15664 -3.093868,1.08934 -0.325562,-0.12776 -3.618902,-5.75791 -3.618902,-6.1867 0,-0.13535 1.250156,-1.16544 2.778125,-2.28875 1.579591,-1.16126 2.787531,-2.23892 2.799829,-2.49804 0.140721,-2.9675 -0.0386,-7.03631 -0.325044,-7.38146 -0.186121,-0.22426 -1.444146,-1.22777 -2.795696,-2.23036 -1.35155,-1.00259 -2.457214,-1.93054 -2.457214,-2.06189 0,-0.24 3.086309,-5.78494 3.453019,-6.20375 0.107841,-0.12317 1.586941,0.38285 3.286622,1.12448 1.699681,0.74163 3.289567,1.34773 3.533119,1.3472 0.243549,-5.3e-4 0.978651,-0.36469 1.63349,-0.80874 0.654851,-0.44404 1.979133,-1.21104 2.942973,-1.7048 0.96384,-0.49377 1.818844,-1.07135 1.900142,-1.28313 0.08127,-0.21179 0.280647,-1.61676 0.442868,-3.12229 0.358386,-3.32607 0.146711,-3.887 1.861386,-3.92379 z m -0.652727,32.1793 c -0.801881,-0.80188 -0.8621,-1.72977 -0.16786,-2.58681 0.453121,-0.55937 0.689491,-0.61704 2.26281,-0.55201 2.635051,0.10891 3.75703,-0.29006 5.316566,-1.89058 1.556721,-1.59761 2.135971,-3.17576 1.872142,-5.10059 -0.653521,-4.76795 -6.230557,-7.12402 -10.020568,-4.23328 -1.687819,1.28734 -2.445228,3.00069 -2.450531,5.54337 -0.004,1.86914 -0.0693,2.1395 -0.626768,2.59091 -1.28822,1.04315 -2.753741,0.33758 -3.096771,-1.4909 -0.798888,-4.25846 1.757852,-8.97841 5.914861,-10.91929 1.305859,-0.6097 1.856899,-0.70638 4.02645,-0.70638 2.169538,0 2.720589,0.0967 4.02645,0.70638 2.004497,0.93589 4.037545,2.87946 5.062935,4.84011 0.779671,1.49081 0.832479,1.76807 0.832479,4.36993 0,2.46244 -0.0808,2.95058 -0.711239,4.29571 -0.909289,1.94017 -2.977118,4.00724 -4.914908,4.91312 -1.245397,0.5822 -1.978078,0.72602 -4.084897,0.80181 -2.45718,0.0884 -2.596221,0.0634 -3.241151,-0.5815 z M 136.04075,65.157778 c -2.23348,0.0016 -2.59444,0.123388 -3.4463,0.560692 -1.80172,0.924898 -2.1553,1.772367 -2.55592,6.132956 -0.18874,2.054363 -0.34692,3.926801 -0.35192,4.160989 -0.006,0.288679 -0.5839,0.614344 -1.79472,1.011306 -0.98227,0.322032 -2.77798,1.050277 -3.99045,1.617991 l -2.20452,1.031978 -3.25768,-2.742986 c -5.08015,-4.277966 -5.4599,-4.234579 -10.94094,1.256255 -5.30027,5.309746 -5.38269,5.922304 -1.42161,10.575065 1.26622,1.487342 2.45841,2.90308 2.64945,3.14606 0.29615,0.3767 0.19381,0.765839 -0.6935,2.643251 -0.57235,1.211006 -1.30035,2.995797 -1.61799,3.965649 l -0.57723,1.763196 -2.30115,0.17622 c -8.926413,0.6836 -8.915747,0.67286 -8.915747,8.73228 0,4.8457 0.04533,5.36899 0.538473,6.20841 1.01821,1.73319 1.79094,1.95933 8.641344,2.52853 l 2.03605,0.16898 0.57774,1.76475 c 0.31789,0.97059 1.04738,2.75798 1.62109,3.97185 0.91106,1.92764 0.99654,2.26258 0.67386,2.64583 -0.20319,0.24134 -1.39791,1.65883 -2.65461,3.14968 -3.93099,4.66339 -3.84889,5.26028 1.44694,10.56938 4.15678,4.16722 4.95355,4.64342 6.8311,4.08089 1.0625,-0.31833 1.87444,-0.90184 5.1015,-3.66799 l 2.23656,-1.9172 2.21743,1.01906 c 1.21973,0.56041 3.00863,1.27962 3.97495,1.59835 l 1.757,0.57929 0.154,1.37718 c 0.0847,0.75743 0.22976,2.50827 0.32246,3.89072 0.17124,2.55348 0.71018,4.32267 1.52032,4.99143 0.24055,0.19857 0.88486,0.52049 1.43195,0.71571 0.68242,0.24352 2.45126,0.35891 5.6348,0.36691 4.30324,0.0108 4.7249,-0.0319 5.80533,-0.58395 2.07401,-1.05977 2.3767,-1.92993 2.78588,-8.00984 l 0.1788,-2.65204 2.15852,-0.75809 c 1.18721,-0.4171 2.97192,-1.16502 3.96617,-1.66191 1.53369,-0.76647 1.87443,-0.85084 2.24689,-0.55811 0.24146,0.18977 1.65531,1.38022 3.14193,2.64583 4.71427,4.01342 5.45594,3.92139 10.7058,-1.33066 5.37369,-5.37594 5.42972,-5.92071 1.13999,-11.01484 l -2.75694,-3.27421 1.1591,-2.4691 c 0.63742,-1.35778 1.37025,-3.1532 1.62884,-3.98994 0.43663,-1.41282 0.5279,-1.52211 1.28158,-1.53531 0.44637,-0.008 2.39459,-0.16731 4.32893,-0.35398 3.74318,-0.36123 4.31889,-0.5838 5.4622,-2.1146 0.51112,-0.68435 0.5457,-1.08697 0.5457,-6.38049 0,-5.29333 -0.0346,-5.69558 -0.5457,-6.38049 -1.14267,-1.53122 -1.7186,-1.75436 -5.4622,-2.11563 -1.93434,-0.18667 -3.88256,-0.34547 -4.32893,-0.35347 -0.75368,-0.0132 -0.84495,-0.123 -1.28158,-1.535823 -0.25859,-0.83675 -0.99583,-2.641428 -1.63866,-4.010607 l -1.16892,-2.489256 1.27486,-1.479494 c 3.66096,-4.248325 4.26612,-5.06503 4.43952,-5.989299 0.36903,-1.967095 -0.17998,-2.880061 -4.07779,-6.777881 -5.72541,-5.725409 -5.62918,-5.734127 -13.82551,1.276408 -0.36256,0.31011 -0.76717,0.198035 -2.91042,-0.80822 -1.36912,-0.6428 -3.16214,-1.376765 -3.98477,-1.630908 l -1.49603,-0.461986 -0.17983,-2.672188 c -0.38568,-5.728052 -0.67029,-6.688529 -2.35386,-7.946803 -0.66965,-0.500483 -1.15954,-0.551842 -5.93659,-0.62425 -1.24816,-0.01892 -2.20055,-0.03203 -2.94504,-0.03153 z m 2.58589,3.94653 h 4.44055 l 0.39481,4.63641 c 0.47985,5.635313 0.41688,5.538684 4.49533,6.905003 1.51504,0.507553 3.62706,1.392574 4.69326,1.966807 3.23555,1.742601 3.34703,1.708981 8.16074,-2.451531 1.47983,-1.279017 2.79128,-2.325439 2.91455,-2.325439 0.38494,0 6.23806,6.010923 6.13451,6.299875 -0.054,0.150648 -1.37811,1.778232 -2.94246,3.616832 -3.43397,4.035965 -3.46744,4.187275 -1.67741,7.581967 0.64172,1.216969 1.54519,3.371717 2.00762,4.788338 0.96704,2.9624 1.76485,3.88796 3.39411,3.93516 0.53453,0.0155 2.51984,0.16432 4.41162,0.33073 l 3.43958,0.30231 v 4.49791 4.49792 l -4.23333,0.33176 c -2.32834,0.18246 -4.56629,0.46706 -4.97334,0.63252 -0.85737,0.34852 -1.21708,0.97963 -2.01383,3.53364 -0.31778,1.01864 -1.16786,3.05207 -1.88877,4.51858 -1.91013,3.88565 -1.91253,3.87208 1.53375,7.92252 1.56435,1.83859 2.88846,3.46618 2.94246,3.61683 0.099,0.2764 -5.74112,6.29936 -6.10816,6.29936 -0.10874,0 -1.42017,-1.04434 -2.91455,-2.32079 -1.49437,-1.27645 -3.06061,-2.58614 -3.4804,-2.91042 -1.17134,-0.90479 -2.48807,-0.77879 -4.73925,0.45372 -1.04818,0.57387 -3.03692,1.41287 -4.41937,1.86449 -1.38245,0.45162 -2.77614,0.95181 -3.09697,1.11156 -1.01501,0.50537 -1.3441,1.72191 -1.6862,6.23321 l -0.32608,4.29948 h -4.45192 c -4.40507,0 -4.45292,-0.006 -4.57078,-0.59532 -0.0655,-0.32743 -0.25075,-2.31771 -0.41135,-4.42298 -0.38977,-5.10939 -0.42026,-5.15781 -3.99252,-6.36912 -1.51987,-0.51537 -3.74352,-1.43853 -4.94181,-2.05104 -3.41227,-1.74422 -3.58274,-1.70446 -7.71943,1.79679 -1.89125,1.60073 -3.53579,2.91042 -3.65404,2.91042 -0.25934,0 -6.15932,-5.88414 -6.15932,-6.14278 0,-0.0999 1.24933,-1.64582 2.77606,-3.43545 1.52674,-1.78963 2.9065,-3.64597 3.06648,-4.12481 0.26683,-0.79863 0.16903,-1.12678 -1.18287,-3.96875 -0.81057,-1.70397 -1.80337,-4.10638 -2.20658,-5.33921 -0.98139,-3.00061 -1.09312,-3.05924 -6.68848,-3.50056 l -4.363574,-0.34417 v -4.4974 -4.49791 l 4.365634,-0.3514 c 5.5952,-0.45031 5.71175,-0.51089 6.67246,-3.47214 0.39562,-1.219412 1.38842,-3.621381 2.20659,-5.337662 1.3657,-2.864868 1.46409,-3.191682 1.19682,-3.99097 -0.16011,-0.47884 -1.54039,-2.340893 -3.06699,-4.137734 -1.52661,-1.796838 -2.77555,-3.346415 -2.77555,-3.443716 0,-0.353009 6.03288,-6.182984 6.29936,-6.087483 0.15065,0.05399 1.77824,1.378106 3.61684,2.942455 4.01786,3.418555 4.17077,3.453234 7.57369,1.719792 1.2141,-0.618463 3.45493,-1.541198 4.97954,-2.050521 3.57945,-1.195766 3.60725,-1.240597 3.99769,-6.358784 0.1606,-2.105271 0.34585,-4.095565 0.41135,-4.422986 0.11785,-0.589013 0.16633,-0.595313 4.55993,-0.595313 z m -4.8478,63.076832 c -9.1899,-2.04708 -16.28503,-9.1714 -18.15458,-18.2293 -1.21986,-5.91021 -0.116,-12.11376 3.05578,-17.173095 2.25211,-3.592369 3.54847,-4.38754 4.86622,-2.984859 0.83959,0.893699 0.7114,1.73428 -0.51292,3.363499 -2.69815,3.590445 -4.01991,7.536705 -4.02981,12.031415 -0.0121,5.49814 1.77487,9.76693 5.76888,13.78089 2.02291,2.03301 2.77954,2.59412 4.90539,3.63774 3.48382,1.71028 5.30175,2.14 8.99583,2.12644 3.4718,-0.0128 5.47655,-0.44991 8.34215,-1.8191 5.11109,-2.44211 9.07744,-7.2379 10.61199,-12.83117 0.64608,-2.35489 0.65365,-7.42509 0.0146,-9.78958 -1.49823,-5.543584 -5.50836,-10.385644 -10.62661,-12.831164 -2.94937,-1.409221 -4.86826,-1.822325 -8.47444,-1.824376 -3.27915,-0.0021 -4.3208,0.188746 -7.30369,1.336535 -1.64484,0.63292 -1.7945,0.64807 -2.54869,0.258061 -0.95354,-0.493091 -1.27917,-1.500201 -0.80497,-2.489586 0.25406,-0.53008 0.8351,-0.89852 2.31088,-1.46535 4.89837,-1.88142 10.5557,-2.024798 15.62251,-0.395938 7.89694,2.538679 14.08761,9.415113 15.72489,17.466808 0.53269,2.6196 0.53064,7.07607 -0.004,9.67959 -1.70864,8.31377 -8.09548,15.20098 -16.38191,17.66534 -3.05001,0.90707 -8.45341,1.13845 -11.37708,0.4872 z m 5.05347,-32.271993 c -2.29448,-0.06164 -4.65001,0.725823 -6.57376,2.499073 -5.46106,5.03382 -2.88508,14.37238 4.38939,15.91324 2.60234,0.55121 6.33802,-0.46514 8.1592,-2.2195 2.70721,-2.60749 3.69346,-6.04411 2.71198,-9.44491 -1.20762,-4.18439 -4.86268,-6.64517 -8.68681,-6.747903 z m -0.15865,3.853513 c 1.46637,0.0233 2.91966,0.5823 3.8716,1.62987 2.58526,2.84498 1.65424,7.36069 -1.81643,8.81083 -2.3581,0.98528 -5.19754,0.16308 -6.67297,-1.93166 -0.61642,-0.87516 -0.80247,-1.4575 -0.88057,-2.75746 -0.12332,-2.05414 0.63354,-3.64923 2.28306,-4.81107 0.92649,-0.65258 2.0748,-0.95866 3.21531,-0.94051 z" />
  </g>
  <g
     id="layer20" />
  <g
     id="layer2" />
</svg>
